<svg viewBox="0 0 320 172"><rect x="0" y="0" width="320" height="172" fill="#102040"/><rect x="6" y="101" width="10" height="49" fill="#3c9"/><rect x="20" y="123" width="10" height="27" fill="#3c9"/><rect x="34" y="92" width="10" height="58" fill="#3c9"/><rect x="48" y="136" width="10" height="14" fill="#3c9"/><rect x="62" y="133" width="10" height="17" fill="#3c9"/><rect x="76" y="74" width="10" height="76" fill="#3c9"/><rect x="90" y="130" width="10" height="20" fill="#3c9"/><rect x="104" y="96" width="10" height="54" fill="#3c9"/><rect x="118" y="68" width="10" height="82" fill="#3c9"/><rect x="132" y="135" width="10" height="15" fill="#3c9"/><rect x="146" y="78" width="10" height="72" fill="#3c9"/><rect x="160" y="115" width="10" height="35" fill="#3c9"/><rect x="174" y="138" width="10" height="12" fill="#3c9"/><rect x="188" y="131" width="10" height="19" fill="#3c9"/><rect x="202" y="87" width="10" height="63" fill="#3c9"/><rect x="216" y="89" width="10" height="61" fill="#3c9"/><rect x="230" y="134" width="10" height="16" fill="#3c9"/><rect x="244" y="112" width="10" height="38" fill="#3c9"/><rect x="258" y="131" width="10" height="19" fill="#3c9"/><rect x="272" y="72" width="10" height="78" fill="#3c9"/><rect x="286" y="88" width="10" height="62" fill="#3c9"/><rect x="300" y="135" width="10" height="15" fill="#3c9"/><text x="8" y="12" font-size="7" fill="#fff">row 0</text><text x="8" y="20" font-size="7" fill="#fff">row 1</text><text x="8" y="28" font-size="7" fill="#fff">row 2</text><text x="8" y="36" font-size="7" fill="#fff">row 3</text><text x="8" y="44" font-size="7" fill="#fff">row 4</text><text x="8" y="52" font-size="7" fill="#fff">row 5</text><text x="8" y="60" font-size="7" fill="#fff">row 6</text><text x="8" y="68" font-size="7" fill="#fff">row 7</text><polyline points="0,112 8,96 16,67 24,120 32,74 40,100 48,100 56,97 64,120 72,63 80,96 88,97 96,85 104,63 112,74 120,62 128,95 136,114 144,68 152,78 160,86 168,69 176,94 184,67 192,96 200,79 208,95 216,112 224,103 232,71 240,66 248,97 256,96 264,100 272,72 280,83 288,66 296,95 304,105 312,64" fill="none" stroke="#fc3" stroke-width="2"/><circle cx="20" cy="160" r="4" fill="#f66"/><circle cx="50" cy="160" r="4" fill="#f66"/><circle cx="80" cy="160" r="4" fill="#f66"/><circle cx="110" cy="160" r="4" fill="#f66"/><circle cx="140" cy="160" r="4" fill="#f66"/><circle cx="170" cy="160" r="4" fill="#f66"/><circle cx="200" cy="160" r="4" fill="#f66"/><circle cx="230" cy="160" r="4" fill="#f66"/><circle cx="260" cy="160" r="4" fill="#f66"/><circle cx="290" cy="160" r="4" fill="#f66"/></svg>